<svg width="263" height="100" version="1.1" viewBox="0 0 69.585 26.458" xmlns="http://www.w3.org/2000/svg">
 <g transform="matrix(1.0631 0 0 1.0631 -106.54 -379.21)" fill="#254896" stroke-width="2.9442" aria-label="Nabora">
  <path d="m120.55 373.68v-8.472h1.32l0.564 1.692v6.78zm5.844 0-4.992-6.396 0.468-2.076 4.992 6.396zm0 0-0.504-1.692v-6.78h1.884v8.472z"/>
  <path d="m132.55 373.8q-0.804 0-1.44-0.396-0.624-0.396-0.996-1.08-0.36-0.684-0.36-1.56t0.36-1.56q0.372-0.684 0.996-1.08 0.636-0.396 1.44-0.396 0.588 0 1.056 0.228 0.48 0.228 0.78 0.636 0.3 0.396 0.336 0.912v2.52q-0.036 0.516-0.336 0.924-0.288 0.396-0.768 0.624t-1.068 0.228zm0.372-1.656q0.588 0 0.948-0.384 0.36-0.396 0.36-0.996 0-0.408-0.168-0.72-0.156-0.312-0.456-0.48-0.288-0.18-0.672-0.18t-0.684 0.18q-0.288 0.168-0.468 0.48-0.168 0.312-0.168 0.72 0 0.396 0.168 0.708t0.468 0.492 0.672 0.18zm1.236 1.536v-1.572l0.276-1.416-0.276-1.416v-1.428h1.8v5.832z"/>
  <path d="m141.49 373.8q-0.588 0-1.08-0.24-0.492-0.252-0.804-0.66-0.312-0.42-0.36-0.936v-2.46q0.048-0.516 0.36-0.912 0.312-0.408 0.804-0.636t1.08-0.228q0.828 0 1.464 0.396 0.648 0.396 1.008 1.08 0.372 0.684 0.372 1.56t-0.372 1.56q-0.36 0.684-1.008 1.08-0.636 0.396-1.464 0.396zm-3.36-0.12v-8.712h1.836v4.308l-0.3 1.416 0.276 1.416v1.572zm3.036-1.536q0.384 0 0.672-0.18 0.3-0.18 0.468-0.492t0.168-0.708q0-0.408-0.168-0.72t-0.468-0.48q-0.288-0.18-0.672-0.18t-0.684 0.18q-0.3 0.168-0.468 0.48-0.156 0.312-0.156 0.72t0.168 0.72 0.456 0.492q0.3 0.168 0.684 0.168z"/>
  <path d="m148.96 373.81q-0.9 0-1.632-0.396-0.72-0.408-1.14-1.104t-0.42-1.56 0.42-1.548 1.14-1.08q0.72-0.408 1.632-0.408t1.632 0.396 1.14 1.092q0.42 0.684 0.42 1.548t-0.42 1.56-1.14 1.104q-0.72 0.396-1.632 0.396zm0-1.668q0.396 0 0.696-0.168 0.3-0.18 0.456-0.492 0.168-0.324 0.168-0.732t-0.168-0.708q-0.168-0.312-0.468-0.48-0.288-0.18-0.684-0.18-0.384 0-0.684 0.18-0.3 0.168-0.468 0.48t-0.168 0.72q0 0.396 0.168 0.72 0.168 0.312 0.468 0.492 0.3 0.168 0.684 0.168z"/>
  <path d="m153.94 373.68v-5.832h1.836v5.832zm1.836-3.204-0.768-0.6q0.228-1.02 0.768-1.584t1.5-0.564q0.42 0 0.732 0.132 0.324 0.12 0.564 0.384l-1.092 1.38q-0.12-0.132-0.3-0.204t-0.408-0.072q-0.456 0-0.732 0.288-0.264 0.276-0.264 0.84z"/>
  <path d="m162.21 373.8q-0.804 0-1.44-0.396-0.624-0.396-0.996-1.08-0.36-0.684-0.36-1.56t0.36-1.56q0.372-0.684 0.996-1.08 0.636-0.396 1.44-0.396 0.588 0 1.056 0.228 0.48 0.228 0.78 0.636 0.3 0.396 0.336 0.912v2.52q-0.036 0.516-0.336 0.924-0.288 0.396-0.768 0.624t-1.068 0.228zm0.372-1.656q0.588 0 0.948-0.384 0.36-0.396 0.36-0.996 0-0.408-0.168-0.72-0.156-0.312-0.456-0.48-0.288-0.18-0.672-0.18t-0.684 0.18q-0.288 0.168-0.468 0.48-0.168 0.312-0.168 0.72 0 0.396 0.168 0.708t0.468 0.492 0.672 0.18zm1.236 1.536v-1.572l0.276-1.416-0.276-1.416v-1.428h1.8v5.832z"/>
 </g>
 <ellipse transform="matrix(.34954 .93692 0 1 0 0)" cx="24.494" cy="-9.7196" rx="13.229" ry="4.6241" fill="#f48225" stroke-width="1.7298"/>
 <path d="m8.5614 4.6675a8.5616 8.5616 0 0 0-8.5614 8.5617 8.5616 8.5616 0 0 0 8.5614 8.5617 8.5616 8.5616 0 0 0 8.5617-8.5617 8.5616 8.5616 0 0 0-8.5617-8.5617zm0 2.6531a5.9086 5.9086 0 0 1 0.18205 0.0028 5.9086 5.9086 0 0 1 0.18182 0.0084 5.9086 5.9086 0 0 1 0.18135 0.014006 5.9086 5.9086 0 0 1 0.18089 0.019607 5.9086 5.9086 0 0 1 0.18019 0.025207 5.9086 5.9086 0 0 1 0.17949 0.030577 5.9086 5.9086 0 0 1 0.17832 0.036178 5.9086 5.9086 0 0 1 0.17715 0.041779 5.9086 5.9086 0 0 1 0.17575 0.047147 5.9086 5.9086 0 0 1 0.17435 0.052283 5.9086 5.9086 0 0 1 0.17248 0.057884 5.9086 5.9086 0 0 1 0.17062 0.063252 5.9086 5.9086 0 0 1 0.16875 0.068154 5.9086 5.9086 0 0 1 0.16642 0.073522 5.9086 5.9086 0 0 1 0.16408 0.078657 5.9086 5.9086 0 0 1 0.16175 0.083558 5.9086 5.9086 0 0 1 0.15895 0.088693 5.9086 5.9086 0 0 1 0.15615 0.093362 5.9086 5.9086 0 0 1 0.15311 0.098262 5.9086 5.9086 0 0 1 0.15031 0.1027 5.9086 5.9086 0 0 1 0.14681 0.10736 5.9086 5.9086 0 0 1 0.14354 0.11203 5.9086 5.9086 0 0 1 0.14004 0.11623 5.9086 5.9086 0 0 1 0.13631 0.12044 5.9086 5.9086 0 0 1 0.13257 0.12464 5.9086 5.9086 0 0 1 0.12861 0.12884 5.9086 5.9086 0 0 1 0.12464 0.13257 5.9086 5.9086 0 0 1 0.12067 0.13631 5.9086 5.9086 0 0 1 0.11623 0.14004 5.9086 5.9086 0 0 1 0.1118 0.14331 5.9086 5.9086 0 0 1 0.10736 0.14704 5.9086 5.9086 0 0 1 0.10293 0.15008 5.9086 5.9086 0 0 1 0.09803 0.15311 5.9086 5.9086 0 0 1 0.09359 0.15638 5.9086 5.9086 0 0 1 0.08846 0.15895 5.9086 5.9086 0 0 1 0.08356 0.16151 5.9086 5.9086 0 0 1 0.07865 0.16408 5.9086 5.9086 0 0 1 0.07352 0.16665 5.9086 5.9086 0 0 1 0.06838 0.16852 5.9086 5.9086 0 0 1 0.06301 0.17085 5.9086 5.9086 0 0 1 0.05788 0.17248 5.9086 5.9086 0 0 1 0.05251 0.17412 5.9086 5.9086 0 0 1 0.04714 0.17575 5.9086 5.9086 0 0 1 0.04154 0.17715 5.9086 5.9086 0 0 1 0.03618 0.17832 5.9086 5.9086 0 0 1 0.0308 0.17949 5.9086 5.9086 0 0 1 0.02497 0.18019 5.9086 5.9086 0 0 1 0.01961 0.18089 5.9086 5.9086 0 0 1 0.014 0.18159 5.9086 5.9086 0 0 1 0.0084 0.18159 5.9086 5.9086 0 0 1 0.0028 0.18205 5.9086 5.9086 0 0 1-0.02521 0.54523 5.9086 5.9086 0 0 1-0.0754 0.54056 5.9086 5.9086 0 0 1-0.12487 0.53122 5.9086 5.9086 0 0 1-0.17342 0.51745 5.9086 5.9086 0 0 1-0.22056 0.49925 5.9086 5.9086 0 0 1-0.26561 0.47684 5.9086 5.9086 0 0 1-0.30833 0.45023 5.9086 5.9086 0 0 1-0.3487 0.41989 5.9086 5.9086 0 0 1-0.38581 0.38582 5.9086 5.9086 0 0 1-0.41989 0.3487 5.9086 5.9086 0 0 1-0.45023 0.30832 5.9086 5.9086 0 0 1-0.47684 0.26561 5.9086 5.9086 0 0 1-0.49925 0.22057 5.9086 5.9086 0 0 1-0.51745 0.17342 5.9086 5.9086 0 0 1-0.53122 0.12487 5.9086 5.9086 0 0 1-0.54056 0.07539 5.9086 5.9086 0 0 1-0.54523 0.02521 5.9086 5.9086 0 0 1-0.54492-0.025215 5.9086 5.9086 0 0 1-0.54056-0.075389 5.9086 5.9086 0 0 1-0.53122-0.12487 5.9086 5.9086 0 0 1-0.51745-0.17342 5.9086 5.9086 0 0 1-0.49948-0.22057 5.9086 5.9086 0 0 1-0.47661-0.26561 5.9086 5.9086 0 0 1-0.45023-0.30832 5.9086 5.9086 0 0 1-0.41989-0.3487 5.9086 5.9086 0 0 1-0.38605-0.38582 5.9086 5.9086 0 0 1-0.34847-0.41989 5.9086 5.9086 0 0 1-0.30856-0.45024 5.9086 5.9086 0 0 1-0.26561-0.47684 5.9086 5.9086 0 0 1-0.22033-0.49925 5.9086 5.9086 0 0 1-0.17342-0.51745 5.9086 5.9086 0 0 1-0.1251-0.53122 5.9086 5.9086 0 0 1-0.075389-0.54056 5.9086 5.9086 0 0 1-0.025208-0.54523 5.9086 5.9086 0 0 1 0.025208-0.54523 5.9086 5.9086 0 0 1 0.075389-0.54056 5.9086 5.9086 0 0 1 0.1251-0.53122 5.9086 5.9086 0 0 1 0.17342-0.51745 5.9086 5.9086 0 0 1 0.22033-0.49925 5.9086 5.9086 0 0 1 0.26561-0.47684 5.9086 5.9086 0 0 1 0.30856-0.45023 5.9086 5.9086 0 0 1 0.34847-0.41966 5.9086 5.9086 0 0 1 0.38605-0.38605 5.9086 5.9086 0 0 1 0.41989-0.3487 5.9086 5.9086 0 0 1 0.45023-0.30832 5.9086 5.9086 0 0 1 0.47661-0.26561 5.9086 5.9086 0 0 1 0.49948-0.22033 5.9086 5.9086 0 0 1 0.51745-0.17342 5.9086 5.9086 0 0 1 0.53122-0.1251 5.9086 5.9086 0 0 1 0.54056-0.075389 5.9086 5.9086 0 0 1 0.54499-0.025208z" fill="#f48225" stroke-width="1.8935"/>
</svg>
